<svg width="16" height="16" viewBox="0 0 16 16" fill="none" xmlns="http://www.w3.org/2000/svg">
<path d="M8.39705 15.1785L9.17753 14.398C9.51501 14.0641 9.50801 13.5191 9.16345 13.1922L4.92713 9.15627H15.031C15.4986 9.15627 15.8748 8.78009 15.8748 8.31252V7.18752C15.8748 6.71995 15.4986 6.34378 15.031 6.34378H4.92713L9.16345 2.30785C9.50447 1.98091 9.51151 1.43599 9.17753 1.102L8.39705 0.321531C8.07011 -0.00895101 7.53573 -0.00895101 7.20528 0.321531L0.370908 7.15587C0.0404264 7.48285 0.0404264 8.01719 0.370908 8.34768L7.20528 15.1785C7.53223 15.509 8.06661 15.509 8.39705 15.1785Z" fill="#959EAD"/>
</svg>
