<svg width="25" height="25" viewBox="0 0 25 25" fill="none" xmlns="http://www.w3.org/2000/svg">
<g clip-path="url(#clip0_0_1246)">
<path d="M12.4776 9.78613C11.6811 9.78613 10.9172 10.1022 10.3541 10.6648C9.79087 11.2274 9.47448 11.9905 9.47448 12.7861C9.47448 13.5818 9.79087 14.3448 10.3541 14.9075C10.9172 15.4701 11.6811 15.7861 12.4776 15.7861C13.274 15.7861 14.0379 15.4701 14.6011 14.9075C15.1642 14.3448 15.4806 13.5818 15.4806 12.7861C15.4806 11.9905 15.1642 11.2274 14.6011 10.6648C14.0379 10.1022 13.274 9.78613 12.4776 9.78613ZM12.4776 7.78613C13.805 7.78613 15.0781 8.31292 16.0167 9.2506C16.9554 10.1883 17.4827 11.4601 17.4827 12.7861C17.4827 14.1122 16.9554 15.384 16.0167 16.3217C15.0781 17.2593 13.805 17.7861 12.4776 17.7861C11.1501 17.7861 9.87704 17.2593 8.93839 16.3217C7.99975 15.384 7.47242 14.1122 7.47242 12.7861C7.47242 11.4601 7.99975 10.1883 8.93839 9.2506C9.87704 8.31292 11.1501 7.78613 12.4776 7.78613ZM18.9842 7.53613C18.9842 7.86765 18.8524 8.1856 18.6177 8.42002C18.3831 8.65444 18.0648 8.78613 17.733 8.78613C17.4011 8.78613 17.0828 8.65444 16.8482 8.42002C16.6135 8.1856 16.4817 7.86765 16.4817 7.53613C16.4817 7.20461 16.6135 6.88667 16.8482 6.65225C17.0828 6.41783 17.4011 6.28613 17.733 6.28613C18.0648 6.28613 18.3831 6.41783 18.6177 6.65225C18.8524 6.88667 18.9842 7.20461 18.9842 7.53613ZM12.4776 4.78613C10.001 4.78613 9.5966 4.79313 8.44442 4.84413C7.65962 4.88113 7.13307 4.98613 6.64457 5.17613C6.21013 5.34413 5.89681 5.54513 5.56346 5.87913C5.25015 6.18153 5.00925 6.55072 4.85874 6.95913C4.66854 7.44913 4.56344 7.97413 4.5274 8.75713C4.47535 9.86113 4.46934 10.2471 4.46934 12.7861C4.46934 15.2601 4.47635 15.6641 4.5274 16.8151C4.56444 17.5981 4.66955 18.1251 4.85874 18.6121C5.02891 19.0471 5.22912 19.3601 5.56146 19.6921C5.89881 20.0281 6.21213 20.2291 6.64257 20.3951C7.13708 20.5861 7.66362 20.6921 8.44442 20.7281C9.54955 20.7801 9.93595 20.7861 12.4776 20.7861C14.9541 20.7861 15.3585 20.7791 16.5107 20.7281C17.2935 20.6911 17.821 20.5861 18.3095 20.3971C18.743 20.2281 19.0583 20.0271 19.3907 19.6951C19.728 19.3581 19.9292 19.0451 20.0954 18.6151C20.2856 18.1221 20.3917 17.5951 20.4277 16.8151C20.4798 15.7111 20.4858 15.3251 20.4858 12.7861C20.4858 10.3121 20.4788 9.90813 20.4277 8.75713C20.3907 7.97513 20.2856 7.44713 20.0954 6.95913C19.9445 6.55113 19.7041 6.18209 19.3917 5.87913C19.0891 5.56598 18.7195 5.3253 18.3105 5.17513C17.82 4.98513 17.2935 4.88013 16.5107 4.84413C15.4056 4.79213 15.0192 4.78613 12.4776 4.78613ZM12.4776 2.78613C15.1974 2.78613 15.5367 2.79613 16.6038 2.84613C17.6699 2.89613 18.3956 3.06313 19.0343 3.31113C19.695 3.56513 20.2515 3.90913 20.8081 4.46413C21.3171 4.96403 21.711 5.56872 21.9623 6.23613C22.2095 6.87313 22.3777 7.59913 22.4278 8.66413C22.4748 9.73013 22.4878 10.0691 22.4878 12.7861C22.4878 15.5031 22.4778 15.8421 22.4278 16.9081C22.3777 17.9731 22.2095 18.6981 21.9623 19.3361C21.7117 20.0039 21.3178 20.6087 20.8081 21.1081C20.3076 21.6165 19.7023 22.0099 19.0343 22.2611C18.3966 22.5081 17.6699 22.6761 16.6038 22.7261C15.5367 22.7731 15.1974 22.7861 12.4776 22.7861C9.75777 22.7861 9.41842 22.7761 8.35132 22.7261C7.28523 22.6761 6.55949 22.5081 5.92083 22.2611C5.25247 22.0106 4.64705 21.6171 4.14701 21.1081C3.63789 20.6083 3.24401 20.0036 2.99282 19.3361C2.74457 18.6991 2.5774 17.9731 2.52735 16.9081C2.4803 15.8421 2.46729 15.5031 2.46729 12.7861C2.46729 10.0691 2.4773 9.73013 2.52735 8.66413C2.5774 7.59813 2.74457 6.87413 2.99282 6.23613C3.24332 5.56831 3.63729 4.96345 4.14701 4.46413C4.64719 3.95536 5.25257 3.56186 5.92083 3.31113C6.55949 3.06313 7.28423 2.89613 8.35132 2.84613C9.41842 2.79913 9.75777 2.78613 12.4776 2.78613Z" fill="black"/>
</g>
<defs>
<clipPath id="clip0_0_1246">
<rect width="24.0247" height="24" fill="white" transform="translate(0.465332 0.786133)"/>
</clipPath>
</defs>
</svg>
