<svg width="25" height="25" viewBox="0 0 25 25" fill="none" xmlns="http://www.w3.org/2000/svg">
<g clip-path="url(#clip0_0_1243)">
<path d="M18.7717 19.1251H16.1039V14.9481C16.1039 13.9521 16.0839 12.6701 14.7125 12.6701C13.3221 12.6701 13.1099 13.7541 13.1099 14.8751V19.1251H10.4411V10.5361H13.0038V11.7061H13.0388C13.3972 11.0321 14.2681 10.3191 15.5694 10.3191C18.2722 10.3191 18.7727 12.0971 18.7727 14.4101V19.1251H18.7717ZM7.42802 9.36113C7.22437 9.3614 7.02266 9.3215 6.83447 9.24374C6.64628 9.16598 6.47531 9.05187 6.33135 8.90797C6.18739 8.76406 6.07328 8.59319 5.99556 8.40515C5.91784 8.2171 5.87803 8.01558 5.87843 7.81213C5.87862 7.50597 5.9697 7.20674 6.14014 6.95228C6.31057 6.69782 6.55272 6.49957 6.83594 6.38259C7.11917 6.2656 7.43076 6.23515 7.73131 6.29507C8.03187 6.355 8.30788 6.50261 8.52446 6.71924C8.74103 6.93587 8.88844 7.21179 8.94804 7.51211C9.00763 7.81244 8.97674 8.12367 8.85928 8.40645C8.74181 8.68924 8.54304 8.93087 8.2881 9.1008C8.03316 9.27074 7.7335 9.36133 7.42702 9.36113H7.42802ZM8.7654 19.1251H6.08964V10.5361H8.7664V19.1251H8.7654ZM20.1081 3.78613H4.75127C4.01451 3.78613 3.4209 4.36613 3.4209 5.08313V20.4891C3.4209 21.2061 4.01551 21.7861 4.75027 21.7861H20.1041C20.8388 21.7861 21.4394 21.2061 21.4394 20.4891V5.08313C21.4394 4.36613 20.8388 3.78613 20.1041 3.78613H20.1071H20.1081Z" fill="black"/>
</g>
<defs>
<clipPath id="clip0_0_1243">
<rect width="24.0247" height="24" fill="white" transform="translate(0.417969 0.786133)"/>
</clipPath>
</defs>
</svg>
