<svg width="25" height="25" viewBox="0 0 25 25" fill="none" xmlns="http://www.w3.org/2000/svg">
<g clip-path="url(#clip0_0_1240)">
<path d="M22.5554 6.44206C21.7911 6.77975 20.9807 7.00153 20.1509 7.10006C21.0255 6.57749 21.6802 5.75507 21.9928 4.78606C21.1719 5.27406 20.272 5.61606 19.334 5.80106C18.704 5.12764 17.8689 4.68102 16.9586 4.53064C16.0482 4.38027 15.1136 4.53455 14.3001 4.96951C13.4866 5.40447 12.8398 6.09574 12.4601 6.93585C12.0804 7.77596 11.9892 8.71784 12.2007 9.61506C10.5361 9.53171 8.90765 9.09958 7.42108 8.34672C5.9345 7.59386 4.62304 6.53711 3.57183 5.24506C3.19974 5.88351 3.0042 6.60929 3.00525 7.34806C3.00525 8.79806 3.74401 10.0791 4.86716 10.8291C4.20249 10.8082 3.55244 10.6288 2.97121 10.3061V10.3581C2.97141 11.3238 3.30592 12.2597 3.91803 13.0071C4.53014 13.7546 5.38217 14.2675 6.32967 14.4591C5.71265 14.6261 5.06567 14.6507 4.43772 14.5311C4.70486 15.3623 5.22554 16.0893 5.92684 16.6102C6.62815 17.1311 7.47497 17.4199 8.34874 17.4361C7.48033 18.1174 6.486 18.621 5.42261 18.9182C4.35922 19.2154 3.24762 19.3003 2.15137 19.1681C4.06503 20.3975 6.29273 21.0502 8.56797 21.0481C16.2689 21.0481 20.4802 14.6751 20.4802 9.14806C20.4802 8.96806 20.4752 8.78606 20.4672 8.60806C21.2869 8.01623 21.9944 7.28308 22.5564 6.44306L22.5554 6.44206Z" fill="black"/>
</g>
<defs>
<clipPath id="clip0_0_1240">
<rect width="24.0247" height="24" fill="white" transform="translate(0.370605 0.786133)"/>
</clipPath>
</defs>
</svg>
